<?xml version="1.0" encoding="UTF-8" standalone="no"?>
<svg
   xmlns:dc="http://purl.org/dc/elements/1.1/"
   xmlns:cc="http://creativecommons.org/ns#"
   xmlns:rdf="http://www.w3.org/1999/02/22-rdf-syntax-ns#"
   xmlns:svg="http://www.w3.org/2000/svg"
   xmlns="http://www.w3.org/2000/svg"
   xmlns:sodipodi="http://sodipodi.sourceforge.net/DTD/sodipodi-0.dtd"
   xmlns:inkscape="http://www.inkscape.org/namespaces/inkscape"
   sodipodi:docname="PiScreen.svg"
   inkscape:version="1.0 (4035a4fb49, 2020-05-01)"
   id="svg8"
   version="1.1"
   viewBox="0 0 148 110.90959"
   height="110.90959mm"
   width="148mm">
  <defs
     id="defs2">
    <meshgradient
       y="75.637276"
       x="31.537804"
       gradientUnits="userSpaceOnUse"
       id="meshgradient2884"
       inkscape:collect="always">
      <meshrow
         id="meshrow2886">
        <meshpatch
           id="meshpatch2888">
          <stop
             id="stop2890"
             style="stop-color:#ffffff;stop-opacity:1"
             path="c 48,0  96,0  144,0" />
          <stop
             id="stop2892"
             style="stop-color:#e8f388;stop-opacity:1"
             path="c 0,27  0,54  0,81" />
          <stop
             id="stop2894"
             style="stop-color:#ffffff;stop-opacity:1"
             path="c -48,0  -96,0  -144,0" />
          <stop
             id="stop2896"
             style="stop-color:#e8f388;stop-opacity:1"
             path="c 0,-27  0,-54  0,-81" />
        </meshpatch>
      </meshrow>
    </meshgradient>
  </defs>
  <sodipodi:namedview
     inkscape:window-maximized="1"
     inkscape:window-y="-8"
     inkscape:window-x="2552"
     inkscape:window-height="1377"
     inkscape:window-width="2560"
     showguides="false"
     showgrid="false"
     inkscape:document-rotation="0"
     inkscape:current-layer="layer2"
     inkscape:document-units="mm"
     inkscape:cy="272.43078"
     inkscape:cx="110.4239"
     inkscape:zoom="0.98994949"
     inkscape:pageshadow="2"
     inkscape:pageopacity="0.0"
     borderopacity="1.0"
     bordercolor="#666666"
     pagecolor="#ffffff"
     id="base" />
  <metadata
     id="metadata5">
    <rdf:RDF>
      <cc:Work
         rdf:about="">
        <dc:format>image/svg+xml</dc:format>
        <dc:type
           rdf:resource="http://purl.org/dc/dcmitype/StillImage" />
        <dc:title></dc:title>
      </cc:Work>
    </rdf:RDF>
  </metadata>
  <g
     transform="translate(-29.537804,-73.637276)"
     inkscape:label="Ebene 2"
     id="layer2"
     inkscape:groupmode="layer">
    <rect
       y="154.97023"
       x="93.832512"
       height="29.48214"
       width="20"
       id="rect2994"
       style="opacity:1;fill:#c3c3c3;fill-opacity:1;fill-rule:nonzero;stroke:none;stroke-width:6.56007;stroke-miterlimit:4;stroke-dasharray:none;stroke-opacity:1" />
    <rect
       style="opacity:1;fill:#c3c3c3;fill-opacity:1;fill-rule:nonzero;stroke:none;stroke-width:5.03338;stroke-miterlimit:4;stroke-dasharray:none;stroke-opacity:1"
       id="rect2994-3"
       width="78.160843"
       height="4.4412169"
       x="64.674034"
       y="180.10565" />
  </g>
  <g
     transform="translate(-29.537804,-73.637276)"
     id="layer1"
     inkscape:groupmode="layer"
     inkscape:label="Ebene 1">
    <rect
       ry="15"
       rx="15"
       y="75.637276"
       x="31.537804"
       height="81"
       width="144"
       id="rect18"
       style="opacity:1;mix-blend-mode:normal;fill:url(#meshgradient2884);fill-opacity:1;fill-rule:nonzero;stroke:#424242;stroke-width:4;stroke-miterlimit:4;stroke-dasharray:none;stroke-opacity:1" />
    <g
       transform="matrix(0.07867404,0,0,0.07867404,81.058463,86.702551)"
       id="g2984">
      <path
         d="m 158.375,1.65625 c -3.6193,0.1123192 -7.51715,1.4493266 -11.9375,4.9375 C 135.61054,2.4174496 125.11041,0.9665612 115.71875,9.46875 101.22489,7.5879922 96.508461,11.469494 92.9375,16 89.754953,15.934135 69.118652,12.72793 59.65625,26.84375 35.874602,24.030329 28.359472,40.831625 36.875,56.5 c -4.856911,7.518955 -9.889503,14.947226 1.46875,29.28125 -4.018006,7.983514 -1.527431,16.64403 7.9375,27.125 -2.497857,11.2226 2.412077,19.14086 11.21875,25.3125 -1.64709,15.35756 14.083505,24.28743 18.78125,27.46875 1.803677,8.94868 5.56291,17.3927 23.53125,22.0625 2.96323,13.3361 13.76206,15.63906 24.21875,18.4375 -34.561929,20.08954 -64.20067,46.52266 -64,111.375 l -5.0625,9.03125 C 15.337882,350.69604 -20.316547,428.16001 35.4375,491.125 c 3.641871,19.70838 9.749589,33.86396 15.1875,49.53125 8.133834,63.13058 61.21763,92.69161 75.21875,96.1875 20.51653,15.62812 42.36818,30.45672 71.9375,40.84375 27.87515,28.74946 58.07388,39.7064 88.4375,39.6875 0.44515,-2.8e-4 0.89853,0.005 1.34375,0 30.36363,0.0189 60.56235,-10.93804 88.4375,-39.6875 29.56932,-10.38703 51.42097,-25.21563 71.9375,-40.84375 14.00112,-3.49589 67.08492,-33.05692 75.21875,-96.1875 5.43791,-15.66729 11.54562,-29.82287 15.1875,-49.53125 55.75404,-62.96499 20.09961,-140.42896 -19.53125,-164.53125 L 513.75,317.5625 c 0.20067,-64.85234 -29.43807,-91.28546 -64,-111.375 10.45669,-2.79844 21.25552,-5.1014 24.21875,-18.4375 17.96834,-4.6698 21.72758,-13.11382 23.53125,-22.0625 4.69775,-3.18132 20.42834,-12.11119 18.78125,-27.46875 8.80668,-6.17164 13.71661,-14.0899 11.21875,-25.3125 9.46494,-10.48097 11.9555,-19.141487 7.9375,-27.125 C 546.79575,71.447226 541.76316,64.018955 536.90625,56.5 545.42178,40.831625 537.90665,24.030329 514.125,26.84375 504.6626,12.72793 484.0263,15.934135 480.84375,16 477.27279,11.469494 472.55636,7.587992 458.0625,9.46875 448.67084,0.96656132 438.17071,2.41745 427.34375,6.59375 414.48455,-3.5536631 405.97149,4.580454 396.25,7.65625 380.67615,2.568472 377.11698,9.5371578 369.46875,12.375 352.4935,8.7869238 347.33315,16.598532 339.1875,24.84375 l -9.46875,-0.1875 c -25.61054,15.093115 -38.33378,45.825501 -42.84375,61.625 -4.51206,-15.801979 -17.20647,-46.534542 -42.8125,-61.625 l -9.46875,0.1875 C 226.4481,16.598532 221.28775,8.7869235 204.3125,12.375 196.66427,9.5371583 193.1051,2.5684729 177.53125,7.65625 c -6.37973,-2.0184911 -12.24667,-6.2144276 -19.15625,-6 z"
         style="fill:#000000"
         id="path2934" />
      <path
         d="m 107.39184,68.055583 c 67.94767,35.031357 107.44689,63.368967 129.08717,87.504467 -11.08235,44.41759 -68.89638,46.44464 -90.03559,45.19858 4.32842,-2.01474 7.93988,-4.42778 9.22051,-8.13574 -5.30449,-3.76981 -24.11289,-0.39719 -37.24363,-7.77416 5.04407,-1.04499 7.40348,-2.06302 9.76289,-5.78542 -12.40571,-3.9567 -25.76862,-7.36642 -33.627746,-13.92116 4.241253,0.0524 8.201156,0.9488 13.740366,-2.89271 -11.111694,-5.98819 -22.969108,-10.73351 -32.18139,-19.88738 5.745213,-0.14063 11.939452,-0.0568 13.740371,-2.16953 -10.17044,-6.30068 -18.751242,-13.30787 -25.853592,-20.97215 8.039979,0.97052 11.435284,0.13478 13.378782,-1.26556 -7.687795,-7.87419 -17.417559,-14.52319 -22.056911,-24.22644 5.969606,2.057484 11.431249,2.84506 15.36752,-0.180795 -2.612365,-5.893453 -13.805413,-9.369618 -20.248967,-23.141676 6.284359,0.609377 12.949606,1.371108 14.282753,0 C 61.802068,58.517346 56.796919,51.835885 51.887978,44.913906 65.338021,44.714177 85.715734,44.966253 84.792549,43.82914 l -8.31654,-8.497335 c 13.137617,-3.537241 26.580651,0.568164 36.339661,3.615887 4.38186,-3.457681 -0.0776,-7.82998 -5.42383,-12.294015 11.16496,1.490646 21.25382,4.057389 30.37345,7.593362 4.87238,-4.399329 -3.16389,-8.798658 -7.05098,-13.197987 17.24936,3.272568 24.55716,7.87068 31.81981,12.47481 5.26935,-5.050799 0.30166,-9.343299 -3.2543,-13.740371 13.00566,4.817048 19.70478,11.035551 26.75756,17.175463 2.39119,-3.227053 6.07494,-5.592408 1.62715,-13.378781 9.23416,5.322725 16.18926,11.59506 21.33374,18.621817 5.71336,-3.637941 3.40387,-8.613023 3.43509,-13.197987 9.59665,7.806516 15.68687,16.11395 23.14168,24.226443 1.50169,-1.093437 2.81661,-4.80171 3.97747,-10.666867 22.89539,22.211815 55.24591,78.158241 8.31654,100.340861 C 207.95028,109.95728 160.25292,86.016909 107.39184,68.055583 Z"
         style="fill:#75a928"
         id="path2936" />
      <path
         d="M 467.92487,68.055583 C 399.9772,103.08694 360.47798,131.42455 338.8377,155.56005 c 11.08235,44.41759 68.89638,46.44464 90.03559,45.19858 -4.32842,-2.01474 -7.93988,-4.42778 -9.22051,-8.13574 5.30449,-3.76981 24.11289,-0.39719 37.24363,-7.77416 -5.04407,-1.04499 -7.40348,-2.06302 -9.76289,-5.78542 12.40571,-3.9567 25.76862,-7.36642 33.62775,-13.92116 -4.24126,0.0524 -8.20116,0.9488 -13.74037,-2.89271 11.11169,-5.98819 22.96911,-10.73351 32.18139,-19.88738 -5.74521,-0.14063 -11.93945,-0.0568 -13.74037,-2.16953 10.17044,-6.30068 18.75124,-13.30787 25.85359,-20.97215 -8.03998,0.97052 -11.43528,0.13478 -13.37878,-1.26556 7.68779,-7.87419 17.41756,-14.52319 22.05691,-24.22644 -5.96961,2.057484 -11.43125,2.84506 -15.36752,-0.180795 2.61237,-5.893453 13.80541,-9.369618 20.24897,-23.141676 -6.28436,0.609377 -12.94961,1.371108 -14.28276,0 2.92231,-11.888563 7.92746,-18.570024 12.8364,-25.492003 -13.45004,-0.199729 -33.82775,0.05235 -32.90457,-1.084766 l 8.31654,-8.497335 c -13.13762,-3.537241 -26.58065,0.568164 -36.33966,3.615887 -4.38186,-3.457681 0.0776,-7.82998 5.42383,-12.294015 -11.16496,1.490646 -21.25382,4.057389 -30.37345,7.593362 -4.87238,-4.399329 3.16389,-8.798658 7.05098,-13.197987 -17.24936,3.272568 -24.55716,7.87068 -31.81981,12.47481 -5.26935,-5.050799 -0.30166,-9.343299 3.2543,-13.740371 -13.00566,4.817048 -19.70478,11.035551 -26.75756,17.175463 -2.39119,-3.227053 -6.07494,-5.592408 -1.62715,-13.378781 -9.23416,5.322725 -16.18926,11.59506 -21.33374,18.621817 -5.71336,-3.637941 -3.40387,-8.613023 -3.43509,-13.197987 -9.59665,7.806516 -15.68687,16.11395 -23.14168,24.226443 -1.50169,-1.093437 -2.81661,-4.80171 -3.97747,-10.666867 -22.89539,22.211815 -55.24591,78.158241 -8.31654,100.340861 39.91877,-32.94716 87.61613,-56.887531 140.47721,-74.848857 z"
         style="fill:#75a928"
         id="path2938" />
      <path
         d="m 365.2046,521.84937 a 71.956155,66.532319 0 1 1 -143.91231,0 71.956155,66.532319 0 1 1 143.91231,0 z"
         transform="matrix(1.131107,0,0,1.1280497,-43.139135,-68.310983)"
         style="fill:#bc1142"
         id="path2940" />
      <path
         d="m 262.84091,276.64774 a 61.875,28.125 0 1 1 -123.75,0 61.875,28.125 0 1 1 123.75,0 z"
         transform="matrix(0.76741684,-1.1613112,2.171115,1.4224368,-560.88858,217.68859)"
         style="fill:#bc1142"
         id="path2942" />
      <path
         d="m 262.84091,276.64774 a 61.875,28.125 0 1 1 -123.75,0 61.875,28.125 0 1 1 123.75,0 z"
         transform="matrix(-0.76741684,-1.1613112,-2.171115,1.4224368,1134.8288,213.68859)"
         style="fill:#bc1142"
         id="path2944" />
      <path
         d="M 72.910253,342.0878 C 109.32447,332.33088 85.201845,492.72431 55.576871,479.56357 22.990103,453.35089 12.493801,376.58814 72.910253,342.0878 Z"
         style="fill:#bc1142"
         id="path2946" />
      <path
         d="m 493.67828,340.0878 c -36.41422,-9.75692 -12.2916,150.63651 17.33338,137.47577 32.58677,-26.21268 43.08307,-102.97543 -17.33338,-137.47577 z"
         style="fill:#bc1142"
         id="path2948" />
      <path
         d="m 369.97158,220.6534 c 62.83486,-10.61013 115.11594,26.72229 113.01138,94.85796 -2.06693,26.12112 -136.15872,-90.96907 -113.01138,-94.85796 z"
         style="fill:#bc1142"
         id="path2950" />
      <path
         d="M 196.35975,218.6534 C 133.52489,208.04327 81.24381,245.37569 83.34837,313.51136 85.4153,339.63248 219.50709,222.54229 196.35975,218.6534 Z"
         style="fill:#bc1142"
         id="path2952" />
      <path
         d="m 286.61932,202.75568 c -37.50259,-0.97548 -73.49548,27.83418 -73.58158,44.54443 -0.10462,20.30426 29.6512,41.09266 73.83726,41.62035 45.12305,0.32321 73.91561,-16.64049 74.0611,-37.59409 0.16484,-23.73996 -41.03879,-48.93744 -74.31678,-48.57069 z"
         style="fill:#bc1142"
         id="path2954" />
      <path
         d="m 288.90937,619.11675 c 32.69744,-1.42711 76.57083,10.53196 76.6568,26.39598 0.5427,15.4052 -39.78969,50.21055 -78.82634,49.53765 -40.42729,1.74391 -80.06908,-33.11559 -79.54951,-45.19859 -0.60506,-17.71593 49.226,-31.54796 81.71905,-30.73504 z"
         style="fill:#bc1142"
         id="path2956" />
      <path
         d="m 168.13874,525.10369 c 23.2791,28.04573 33.89066,77.31899 14.46355,91.84353 -18.37917,11.08784 -63.01228,6.52162 -94.736237,-39.05157 -21.395052,-38.24168 -18.637584,-77.15663 -3.615887,-88.58924 22.464424,-13.68429 57.173424,4.79902 83.888574,35.79728 z"
         style="fill:#bc1142"
         id="path2958" />
      <path
         d="m 405.0209,516.21177 c -25.18682,29.50165 -39.21227,83.30951 -20.83785,100.6428 17.56828,13.46361 64.7292,11.58162 99.56566,-36.75574 25.29599,-32.46471 16.82013,-86.68225 2.37077,-101.07511 -21.46408,-16.60213 -52.27691,4.64489 -81.09858,37.18805 z"
         style="fill:#bc1142"
         id="path2960" />
    </g>
    <circle
       r="0.80557406"
       cy="156.73222"
       cx="158.33189"
       id="path3023"
       style="opacity:1;fill:#00ff00;fill-opacity:1;fill-rule:nonzero;stroke:none;stroke-width:0.301775;stroke-miterlimit:4;stroke-dasharray:none;stroke-opacity:1" />
  </g>
  <script
     id="mesh_polyfill"
     type="text/javascript">
!function(){const t=&quot;http://www.w3.org/2000/svg&quot;,e=&quot;http://www.w3.org/1999/xlink&quot;,s=&quot;http://www.w3.org/1999/xhtml&quot;,r=2;if(document.createElementNS(t,&quot;meshgradient&quot;).x)return;const n=(t,e,s,r)=&gt;{let n=new x(.5*(e.x+s.x),.5*(e.y+s.y)),o=new x(.5*(t.x+e.x),.5*(t.y+e.y)),i=new x(.5*(s.x+r.x),.5*(s.y+r.y)),a=new x(.5*(n.x+o.x),.5*(n.y+o.y)),h=new x(.5*(n.x+i.x),.5*(n.y+i.y)),l=new x(.5*(a.x+h.x),.5*(a.y+h.y));return[[t,o,a,l],[l,h,i,r]]},o=t=&gt;{let e=t[0].distSquared(t[1]),s=t[2].distSquared(t[3]),r=.25*t[0].distSquared(t[2]),n=.25*t[1].distSquared(t[3]),o=e&gt;s?e:s,i=r&gt;n?r:n;return 18*(o&gt;i?o:i)},i=(t,e)=&gt;Math.sqrt(t.distSquared(e)),a=(t,e)=&gt;t.scale(2/3).add(e.scale(1/3)),h=t=&gt;{let e,s,r,n,o,i,a,h=new g;return t.match(/(\w+\(\s*[^)]+\))+/g).forEach(t=&gt;{let l=t.match(/[\w.-]+/g),d=l.shift();switch(d){case&quot;translate&quot;:2===l.length?e=new g(1,0,0,1,l[0],l[1]):(console.error(&quot;mesh.js: translate does not have 2 arguments!&quot;),e=new g(1,0,0,1,0,0)),h=h.append(e);break;case&quot;scale&quot;:1===l.length?s=new g(l[0],0,0,l[0],0,0):2===l.length?s=new g(l[0],0,0,l[1],0,0):(console.error(&quot;mesh.js: scale does not have 1 or 2 arguments!&quot;),s=new g(1,0,0,1,0,0)),h=h.append(s);break;case&quot;rotate&quot;:if(3===l.length&amp;&amp;(e=new g(1,0,0,1,l[1],l[2]),h=h.append(e)),l[0]){r=l[0]*Math.PI/180;let t=Math.cos(r),e=Math.sin(r);Math.abs(t)&lt;1e-16&amp;&amp;(t=0),Math.abs(e)&lt;1e-16&amp;&amp;(e=0),a=new g(t,e,-e,t,0,0),h=h.append(a)}else console.error(&quot;math.js: No argument to rotate transform!&quot;);3===l.length&amp;&amp;(e=new g(1,0,0,1,-l[1],-l[2]),h=h.append(e));break;case&quot;skewX&quot;:l[0]?(r=l[0]*Math.PI/180,n=Math.tan(r),o=new g(1,0,n,1,0,0),h=h.append(o)):console.error(&quot;math.js: No argument to skewX transform!&quot;);break;case&quot;skewY&quot;:l[0]?(r=l[0]*Math.PI/180,n=Math.tan(r),i=new g(1,n,0,1,0,0),h=h.append(i)):console.error(&quot;math.js: No argument to skewY transform!&quot;);break;case&quot;matrix&quot;:6===l.length?h=h.append(new g(...l)):console.error(&quot;math.js: Incorrect number of arguments for matrix!&quot;);break;default:console.error(&quot;mesh.js: Unhandled transform type: &quot;+d)}}),h},l=t=&gt;{let e=[],s=t.split(/[ ,]+/);for(let t=0,r=s.length-1;t&lt;r;t+=2)e.push(new x(parseFloat(s[t]),parseFloat(s[t+1])));return e},d=(t,e)=&gt;{for(let s in e)t.setAttribute(s,e[s])},c=(t,e,s,r,n)=&gt;{let o,i,a=[0,0,0,0];for(let h=0;h&lt;3;++h)e[h]&lt;t[h]&amp;&amp;e[h]&lt;s[h]||t[h]&lt;e[h]&amp;&amp;s[h]&lt;e[h]?a[h]=0:(a[h]=.5*((e[h]-t[h])/r+(s[h]-e[h])/n),o=Math.abs(3*(e[h]-t[h])/r),i=Math.abs(3*(s[h]-e[h])/n),a[h]&gt;o?a[h]=o:a[h]&gt;i&amp;&amp;(a[h]=i));return a},u=[[1,0,0,0,0,0,0,0,0,0,0,0,0,0,0,0],[0,0,0,0,1,0,0,0,0,0,0,0,0,0,0,0],[-3,3,0,0,-2,-1,0,0,0,0,0,0,0,0,0,0],[2,-2,0,0,1,1,0,0,0,0,0,0,0,0,0,0],[0,0,0,0,0,0,0,0,1,0,0,0,0,0,0,0],[0,0,0,0,0,0,0,0,0,0,0,0,1,0,0,0],[0,0,0,0,0,0,0,0,-3,3,0,0,-2,-1,0,0],[0,0,0,0,0,0,0,0,2,-2,0,0,1,1,0,0],[-3,0,3,0,0,0,0,0,-2,0,-1,0,0,0,0,0],[0,0,0,0,-3,0,3,0,0,0,0,0,-2,0,-1,0],[9,-9,-9,9,6,3,-6,-3,6,-6,3,-3,4,2,2,1],[-6,6,6,-6,-3,-3,3,3,-4,4,-2,2,-2,-2,-1,-1],[2,0,-2,0,0,0,0,0,1,0,1,0,0,0,0,0],[0,0,0,0,2,0,-2,0,0,0,0,0,1,0,1,0],[-6,6,6,-6,-4,-2,4,2,-3,3,-3,3,-2,-1,-2,-1],[4,-4,-4,4,2,2,-2,-2,2,-2,2,-2,1,1,1,1]],f=t=&gt;{let e=[];for(let s=0;s&lt;16;++s){e[s]=0;for(let r=0;r&lt;16;++r)e[s]+=u[s][r]*t[r]}return e},p=(t,e,s)=&gt;{const r=e*e,n=s*s,o=e*e*e,i=s*s*s;return t[0]+t[1]*e+t[2]*r+t[3]*o+t[4]*s+t[5]*s*e+t[6]*s*r+t[7]*s*o+t[8]*n+t[9]*n*e+t[10]*n*r+t[11]*n*o+t[12]*i+t[13]*i*e+t[14]*i*r+t[15]*i*o},y=t=&gt;{let e=[],s=[],r=[];for(let s=0;s&lt;4;++s)e[s]=[],e[s][0]=n(t[0][s],t[1][s],t[2][s],t[3][s]),e[s][1]=[],e[s][1].push(...n(...e[s][0][0])),e[s][1].push(...n(...e[s][0][1])),e[s][2]=[],e[s][2].push(...n(...e[s][1][0])),e[s][2].push(...n(...e[s][1][1])),e[s][2].push(...n(...e[s][1][2])),e[s][2].push(...n(...e[s][1][3]));for(let t=0;t&lt;8;++t){s[t]=[];for(let r=0;r&lt;4;++r)s[t][r]=[],s[t][r][0]=n(e[0][2][t][r],e[1][2][t][r],e[2][2][t][r],e[3][2][t][r]),s[t][r][1]=[],s[t][r][1].push(...n(...s[t][r][0][0])),s[t][r][1].push(...n(...s[t][r][0][1])),s[t][r][2]=[],s[t][r][2].push(...n(...s[t][r][1][0])),s[t][r][2].push(...n(...s[t][r][1][1])),s[t][r][2].push(...n(...s[t][r][1][2])),s[t][r][2].push(...n(...s[t][r][1][3]))}for(let t=0;t&lt;8;++t){r[t]=[];for(let e=0;e&lt;8;++e)r[t][e]=[],r[t][e][0]=s[t][0][2][e],r[t][e][1]=s[t][1][2][e],r[t][e][2]=s[t][2][2][e],r[t][e][3]=s[t][3][2][e]}return r};class x{constructor(t,e){this.x=t||0,this.y=e||0}toString(){return`(x=${this.x}, y=${this.y})`}clone(){return new x(this.x,this.y)}add(t){return new x(this.x+t.x,this.y+t.y)}scale(t){return void 0===t.x?new x(this.x*t,this.y*t):new x(this.x*t.x,this.y*t.y)}distSquared(t){let e=this.x-t.x,s=this.y-t.y;return e*e+s*s}transform(t){let e=this.x*t.a+this.y*t.c+t.e,s=this.x*t.b+this.y*t.d+t.f;return new x(e,s)}}class g{constructor(t,e,s,r,n,o){void 0===t?(this.a=1,this.b=0,this.c=0,this.d=1,this.e=0,this.f=0):(this.a=t,this.b=e,this.c=s,this.d=r,this.e=n,this.f=o)}toString(){return`affine: ${this.a} ${this.c} ${this.e} \n       ${this.b} ${this.d} ${this.f}`}append(t){t instanceof g||console.error(&quot;mesh.js: argument to Affine.append is not affine!&quot;);let e=this.a*t.a+this.c*t.b,s=this.b*t.a+this.d*t.b,r=this.a*t.c+this.c*t.d,n=this.b*t.c+this.d*t.d,o=this.a*t.e+this.c*t.f+this.e,i=this.b*t.e+this.d*t.f+this.f;return new g(e,s,r,n,o,i)}}class w{constructor(t,e){this.nodes=t,this.colors=e}paintCurve(t,e){if(o(this.nodes)&gt;r){const s=n(...this.nodes);let r=[[],[]],o=[[],[]];for(let t=0;t&lt;4;++t)r[0][t]=this.colors[0][t],r[1][t]=(this.colors[0][t]+this.colors[1][t])/2,o[0][t]=r[1][t],o[1][t]=this.colors[1][t];let i=new w(s[0],r),a=new w(s[1],o);i.paintCurve(t,e),a.paintCurve(t,e)}else{let s=Math.round(this.nodes[0].x);if(s&gt;=0&amp;&amp;s&lt;e){let r=4*(~~this.nodes[0].y*e+s);t[r]=Math.round(this.colors[0][0]),t[r+1]=Math.round(this.colors[0][1]),t[r+2]=Math.round(this.colors[0][2]),t[r+3]=Math.round(this.colors[0][3])}}}}class m{constructor(t,e){this.nodes=t,this.colors=e}split(){let t=[[],[],[],[]],e=[[],[],[],[]],s=[[[],[]],[[],[]]],r=[[[],[]],[[],[]]];for(let s=0;s&lt;4;++s){const r=n(this.nodes[0][s],this.nodes[1][s],this.nodes[2][s],this.nodes[3][s]);t[0][s]=r[0][0],t[1][s]=r[0][1],t[2][s]=r[0][2],t[3][s]=r[0][3],e[0][s]=r[1][0],e[1][s]=r[1][1],e[2][s]=r[1][2],e[3][s]=r[1][3]}for(let t=0;t&lt;4;++t)s[0][0][t]=this.colors[0][0][t],s[0][1][t]=this.colors[0][1][t],s[1][0][t]=(this.colors[0][0][t]+this.colors[1][0][t])/2,s[1][1][t]=(this.colors[0][1][t]+this.colors[1][1][t])/2,r[0][0][t]=s[1][0][t],r[0][1][t]=s[1][1][t],r[1][0][t]=this.colors[1][0][t],r[1][1][t]=this.colors[1][1][t];return[new m(t,s),new m(e,r)]}paint(t,e){let s,n=!1;for(let t=0;t&lt;4;++t)if((s=o([this.nodes[0][t],this.nodes[1][t],this.nodes[2][t],this.nodes[3][t]]))&gt;r){n=!0;break}if(n){let s=this.split();s[0].paint(t,e),s[1].paint(t,e)}else{new w([...this.nodes[0]],[...this.colors[0]]).paintCurve(t,e)}}}class b{constructor(t){this.readMesh(t),this.type=t.getAttribute(&quot;type&quot;)||&quot;bilinear&quot;}readMesh(t){let e=[[]],s=[[]],r=Number(t.getAttribute(&quot;x&quot;)),n=Number(t.getAttribute(&quot;y&quot;));e[0][0]=new x(r,n);let o=t.children;for(let t=0,r=o.length;t&lt;r;++t){e[3*t+1]=[],e[3*t+2]=[],e[3*t+3]=[],s[t+1]=[];let r=o[t].children;for(let n=0,o=r.length;n&lt;o;++n){let o=r[n].children;for(let r=0,i=o.length;r&lt;i;++r){let i=r;0!==t&amp;&amp;++i;let h,d=o[r].getAttribute(&quot;path&quot;),c=&quot;l&quot;;null!=d&amp;&amp;(c=(h=d.match(/\s*([lLcC])\s*(.*)/))[1]);let u=l(h[2]);switch(c){case&quot;l&quot;:0===i?(e[3*t][3*n+3]=u[0].add(e[3*t][3*n]),e[3*t][3*n+1]=a(e[3*t][3*n],e[3*t][3*n+3]),e[3*t][3*n+2]=a(e[3*t][3*n+3],e[3*t][3*n])):1===i?(e[3*t+3][3*n+3]=u[0].add(e[3*t][3*n+3]),e[3*t+1][3*n+3]=a(e[3*t][3*n+3],e[3*t+3][3*n+3]),e[3*t+2][3*n+3]=a(e[3*t+3][3*n+3],e[3*t][3*n+3])):2===i?(0===n&amp;&amp;(e[3*t+3][3*n+0]=u[0].add(e[3*t+3][3*n+3])),e[3*t+3][3*n+1]=a(e[3*t+3][3*n],e[3*t+3][3*n+3]),e[3*t+3][3*n+2]=a(e[3*t+3][3*n+3],e[3*t+3][3*n])):(e[3*t+1][3*n]=a(e[3*t][3*n],e[3*t+3][3*n]),e[3*t+2][3*n]=a(e[3*t+3][3*n],e[3*t][3*n]));break;case&quot;L&quot;:0===i?(e[3*t][3*n+3]=u[0],e[3*t][3*n+1]=a(e[3*t][3*n],e[3*t][3*n+3]),e[3*t][3*n+2]=a(e[3*t][3*n+3],e[3*t][3*n])):1===i?(e[3*t+3][3*n+3]=u[0],e[3*t+1][3*n+3]=a(e[3*t][3*n+3],e[3*t+3][3*n+3]),e[3*t+2][3*n+3]=a(e[3*t+3][3*n+3],e[3*t][3*n+3])):2===i?(0===n&amp;&amp;(e[3*t+3][3*n+0]=u[0]),e[3*t+3][3*n+1]=a(e[3*t+3][3*n],e[3*t+3][3*n+3]),e[3*t+3][3*n+2]=a(e[3*t+3][3*n+3],e[3*t+3][3*n])):(e[3*t+1][3*n]=a(e[3*t][3*n],e[3*t+3][3*n]),e[3*t+2][3*n]=a(e[3*t+3][3*n],e[3*t][3*n]));break;case&quot;c&quot;:0===i?(e[3*t][3*n+1]=u[0].add(e[3*t][3*n]),e[3*t][3*n+2]=u[1].add(e[3*t][3*n]),e[3*t][3*n+3]=u[2].add(e[3*t][3*n])):1===i?(e[3*t+1][3*n+3]=u[0].add(e[3*t][3*n+3]),e[3*t+2][3*n+3]=u[1].add(e[3*t][3*n+3]),e[3*t+3][3*n+3]=u[2].add(e[3*t][3*n+3])):2===i?(e[3*t+3][3*n+2]=u[0].add(e[3*t+3][3*n+3]),e[3*t+3][3*n+1]=u[1].add(e[3*t+3][3*n+3]),0===n&amp;&amp;(e[3*t+3][3*n+0]=u[2].add(e[3*t+3][3*n+3]))):(e[3*t+2][3*n]=u[0].add(e[3*t+3][3*n]),e[3*t+1][3*n]=u[1].add(e[3*t+3][3*n]));break;case&quot;C&quot;:0===i?(e[3*t][3*n+1]=u[0],e[3*t][3*n+2]=u[1],e[3*t][3*n+3]=u[2]):1===i?(e[3*t+1][3*n+3]=u[0],e[3*t+2][3*n+3]=u[1],e[3*t+3][3*n+3]=u[2]):2===i?(e[3*t+3][3*n+2]=u[0],e[3*t+3][3*n+1]=u[1],0===n&amp;&amp;(e[3*t+3][3*n+0]=u[2])):(e[3*t+2][3*n]=u[0],e[3*t+1][3*n]=u[1]);break;default:console.error(&quot;mesh.js: &quot;+c+&quot; invalid path type.&quot;)}if(0===t&amp;&amp;0===n||r&gt;0){let e=window.getComputedStyle(o[r]).stopColor.match(/^rgb\s*\(\s*(\d+)\s*,\s*(\d+)\s*,\s*(\d+)\s*\)$/i),a=window.getComputedStyle(o[r]).stopOpacity,h=255;a&amp;&amp;(h=Math.floor(255*a)),e&amp;&amp;(0===i?(s[t][n]=[],s[t][n][0]=Math.floor(e[1]),s[t][n][1]=Math.floor(e[2]),s[t][n][2]=Math.floor(e[3]),s[t][n][3]=h):1===i?(s[t][n+1]=[],s[t][n+1][0]=Math.floor(e[1]),s[t][n+1][1]=Math.floor(e[2]),s[t][n+1][2]=Math.floor(e[3]),s[t][n+1][3]=h):2===i?(s[t+1][n+1]=[],s[t+1][n+1][0]=Math.floor(e[1]),s[t+1][n+1][1]=Math.floor(e[2]),s[t+1][n+1][2]=Math.floor(e[3]),s[t+1][n+1][3]=h):3===i&amp;&amp;(s[t+1][n]=[],s[t+1][n][0]=Math.floor(e[1]),s[t+1][n][1]=Math.floor(e[2]),s[t+1][n][2]=Math.floor(e[3]),s[t+1][n][3]=h))}}e[3*t+1][3*n+1]=new x,e[3*t+1][3*n+2]=new x,e[3*t+2][3*n+1]=new x,e[3*t+2][3*n+2]=new x,e[3*t+1][3*n+1].x=(-4*e[3*t][3*n].x+6*(e[3*t][3*n+1].x+e[3*t+1][3*n].x)+-2*(e[3*t][3*n+3].x+e[3*t+3][3*n].x)+3*(e[3*t+3][3*n+1].x+e[3*t+1][3*n+3].x)+-1*e[3*t+3][3*n+3].x)/9,e[3*t+1][3*n+2].x=(-4*e[3*t][3*n+3].x+6*(e[3*t][3*n+2].x+e[3*t+1][3*n+3].x)+-2*(e[3*t][3*n].x+e[3*t+3][3*n+3].x)+3*(e[3*t+3][3*n+2].x+e[3*t+1][3*n].x)+-1*e[3*t+3][3*n].x)/9,e[3*t+2][3*n+1].x=(-4*e[3*t+3][3*n].x+6*(e[3*t+3][3*n+1].x+e[3*t+2][3*n].x)+-2*(e[3*t+3][3*n+3].x+e[3*t][3*n].x)+3*(e[3*t][3*n+1].x+e[3*t+2][3*n+3].x)+-1*e[3*t][3*n+3].x)/9,e[3*t+2][3*n+2].x=(-4*e[3*t+3][3*n+3].x+6*(e[3*t+3][3*n+2].x+e[3*t+2][3*n+3].x)+-2*(e[3*t+3][3*n].x+e[3*t][3*n+3].x)+3*(e[3*t][3*n+2].x+e[3*t+2][3*n].x)+-1*e[3*t][3*n].x)/9,e[3*t+1][3*n+1].y=(-4*e[3*t][3*n].y+6*(e[3*t][3*n+1].y+e[3*t+1][3*n].y)+-2*(e[3*t][3*n+3].y+e[3*t+3][3*n].y)+3*(e[3*t+3][3*n+1].y+e[3*t+1][3*n+3].y)+-1*e[3*t+3][3*n+3].y)/9,e[3*t+1][3*n+2].y=(-4*e[3*t][3*n+3].y+6*(e[3*t][3*n+2].y+e[3*t+1][3*n+3].y)+-2*(e[3*t][3*n].y+e[3*t+3][3*n+3].y)+3*(e[3*t+3][3*n+2].y+e[3*t+1][3*n].y)+-1*e[3*t+3][3*n].y)/9,e[3*t+2][3*n+1].y=(-4*e[3*t+3][3*n].y+6*(e[3*t+3][3*n+1].y+e[3*t+2][3*n].y)+-2*(e[3*t+3][3*n+3].y+e[3*t][3*n].y)+3*(e[3*t][3*n+1].y+e[3*t+2][3*n+3].y)+-1*e[3*t][3*n+3].y)/9,e[3*t+2][3*n+2].y=(-4*e[3*t+3][3*n+3].y+6*(e[3*t+3][3*n+2].y+e[3*t+2][3*n+3].y)+-2*(e[3*t+3][3*n].y+e[3*t][3*n+3].y)+3*(e[3*t][3*n+2].y+e[3*t+2][3*n].y)+-1*e[3*t][3*n].y)/9}}this.nodes=e,this.colors=s}paintMesh(t,e){let s=(this.nodes.length-1)/3,r=(this.nodes[0].length-1)/3;if(&quot;bilinear&quot;===this.type||s&lt;2||r&lt;2){let n;for(let o=0;o&lt;s;++o)for(let s=0;s&lt;r;++s){let r=[];for(let t=3*o,e=3*o+4;t&lt;e;++t)r.push(this.nodes[t].slice(3*s,3*s+4));let i=[];i.push(this.colors[o].slice(s,s+2)),i.push(this.colors[o+1].slice(s,s+2)),(n=new m(r,i)).paint(t,e)}}else{let n,o,a,h,l,d,u;const x=s,g=r;s++,r++;let w=new Array(s);for(let t=0;t&lt;s;++t){w[t]=new Array(r);for(let e=0;e&lt;r;++e)w[t][e]=[],w[t][e][0]=this.nodes[3*t][3*e],w[t][e][1]=this.colors[t][e]}for(let t=0;t&lt;s;++t)for(let e=0;e&lt;r;++e)0!==t&amp;&amp;t!==x&amp;&amp;(n=i(w[t-1][e][0],w[t][e][0]),o=i(w[t+1][e][0],w[t][e][0]),w[t][e][2]=c(w[t-1][e][1],w[t][e][1],w[t+1][e][1],n,o)),0!==e&amp;&amp;e!==g&amp;&amp;(n=i(w[t][e-1][0],w[t][e][0]),o=i(w[t][e+1][0],w[t][e][0]),w[t][e][3]=c(w[t][e-1][1],w[t][e][1],w[t][e+1][1],n,o));for(let t=0;t&lt;r;++t){w[0][t][2]=[],w[x][t][2]=[];for(let e=0;e&lt;4;++e)n=i(w[1][t][0],w[0][t][0]),o=i(w[x][t][0],w[x-1][t][0]),w[0][t][2][e]=n&gt;0?2*(w[1][t][1][e]-w[0][t][1][e])/n-w[1][t][2][e]:0,w[x][t][2][e]=o&gt;0?2*(w[x][t][1][e]-w[x-1][t][1][e])/o-w[x-1][t][2][e]:0}for(let t=0;t&lt;s;++t){w[t][0][3]=[],w[t][g][3]=[];for(let e=0;e&lt;4;++e)n=i(w[t][1][0],w[t][0][0]),o=i(w[t][g][0],w[t][g-1][0]),w[t][0][3][e]=n&gt;0?2*(w[t][1][1][e]-w[t][0][1][e])/n-w[t][1][3][e]:0,w[t][g][3][e]=o&gt;0?2*(w[t][g][1][e]-w[t][g-1][1][e])/o-w[t][g-1][3][e]:0}for(let s=0;s&lt;x;++s)for(let r=0;r&lt;g;++r){let n=i(w[s][r][0],w[s+1][r][0]),o=i(w[s][r+1][0],w[s+1][r+1][0]),c=i(w[s][r][0],w[s][r+1][0]),x=i(w[s+1][r][0],w[s+1][r+1][0]),g=[[],[],[],[]];for(let t=0;t&lt;4;++t){(d=[])[0]=w[s][r][1][t],d[1]=w[s+1][r][1][t],d[2]=w[s][r+1][1][t],d[3]=w[s+1][r+1][1][t],d[4]=w[s][r][2][t]*n,d[5]=w[s+1][r][2][t]*n,d[6]=w[s][r+1][2][t]*o,d[7]=w[s+1][r+1][2][t]*o,d[8]=w[s][r][3][t]*c,d[9]=w[s+1][r][3][t]*x,d[10]=w[s][r+1][3][t]*c,d[11]=w[s+1][r+1][3][t]*x,d[12]=0,d[13]=0,d[14]=0,d[15]=0,u=f(d);for(let e=0;e&lt;9;++e){g[t][e]=[];for(let s=0;s&lt;9;++s)g[t][e][s]=p(u,e/8,s/8),g[t][e][s]&gt;255?g[t][e][s]=255:g[t][e][s]&lt;0&amp;&amp;(g[t][e][s]=0)}}h=[];for(let t=3*s,e=3*s+4;t&lt;e;++t)h.push(this.nodes[t].slice(3*r,3*r+4));l=y(h);for(let s=0;s&lt;8;++s)for(let r=0;r&lt;8;++r)(a=new m(l[s][r],[[[g[0][s][r],g[1][s][r],g[2][s][r],g[3][s][r]],[g[0][s][r+1],g[1][s][r+1],g[2][s][r+1],g[3][s][r+1]]],[[g[0][s+1][r],g[1][s+1][r],g[2][s+1][r],g[3][s+1][r]],[g[0][s+1][r+1],g[1][s+1][r+1],g[2][s+1][r+1],g[3][s+1][r+1]]]])).paint(t,e)}}}transform(t){if(t instanceof x)for(let e=0,s=this.nodes.length;e&lt;s;++e)for(let s=0,r=this.nodes[0].length;s&lt;r;++s)this.nodes[e][s]=this.nodes[e][s].add(t);else if(t instanceof g)for(let e=0,s=this.nodes.length;e&lt;s;++e)for(let s=0,r=this.nodes[0].length;s&lt;r;++s)this.nodes[e][s]=this.nodes[e][s].transform(t)}scale(t){for(let e=0,s=this.nodes.length;e&lt;s;++e)for(let s=0,r=this.nodes[0].length;s&lt;r;++s)this.nodes[e][s]=this.nodes[e][s].scale(t)}}document.querySelectorAll(&quot;rect,circle,ellipse,path,text&quot;).forEach((r,n)=&gt;{let o=r.getAttribute(&quot;id&quot;);o||(o=&quot;patchjs_shape&quot;+n,r.setAttribute(&quot;id&quot;,o));const i=r.style.fill.match(/^url\(\s*&quot;?\s*#([^\s&quot;]+)&quot;?\s*\)/),a=r.style.stroke.match(/^url\(\s*&quot;?\s*#([^\s&quot;]+)&quot;?\s*\)/);if(i&amp;&amp;i[1]){const a=document.getElementById(i[1]);if(a&amp;&amp;&quot;meshgradient&quot;===a.nodeName){const i=r.getBBox();let l=document.createElementNS(s,&quot;canvas&quot;);d(l,{width:i.width,height:i.height});const c=l.getContext(&quot;2d&quot;);let u=c.createImageData(i.width,i.height);const f=new b(a);&quot;objectBoundingBox&quot;===a.getAttribute(&quot;gradientUnits&quot;)&amp;&amp;f.scale(new x(i.width,i.height));const p=a.getAttribute(&quot;gradientTransform&quot;);null!=p&amp;&amp;f.transform(h(p)),&quot;userSpaceOnUse&quot;===a.getAttribute(&quot;gradientUnits&quot;)&amp;&amp;f.transform(new x(-i.x,-i.y)),f.paintMesh(u.data,l.width),c.putImageData(u,0,0);const y=document.createElementNS(t,&quot;image&quot;);d(y,{width:i.width,height:i.height,x:i.x,y:i.y});let g=l.toDataURL();y.setAttributeNS(e,&quot;xlink:href&quot;,g),r.parentNode.insertBefore(y,r),r.style.fill=&quot;none&quot;;const w=document.createElementNS(t,&quot;use&quot;);w.setAttributeNS(e,&quot;xlink:href&quot;,&quot;#&quot;+o);const m=&quot;patchjs_clip&quot;+n,M=document.createElementNS(t,&quot;clipPath&quot;);M.setAttribute(&quot;id&quot;,m),M.appendChild(w),r.parentElement.insertBefore(M,r),y.setAttribute(&quot;clip-path&quot;,&quot;url(#&quot;+m+&quot;)&quot;),u=null,l=null,g=null}}if(a&amp;&amp;a[1]){const o=document.getElementById(a[1]);if(o&amp;&amp;&quot;meshgradient&quot;===o.nodeName){const i=parseFloat(r.style.strokeWidth.slice(0,-2))*(parseFloat(r.style.strokeMiterlimit)||parseFloat(r.getAttribute(&quot;stroke-miterlimit&quot;))||1),a=r.getBBox(),l=Math.trunc(a.width+i),c=Math.trunc(a.height+i),u=Math.trunc(a.x-i/2),f=Math.trunc(a.y-i/2);let p=document.createElementNS(s,&quot;canvas&quot;);d(p,{width:l,height:c});const y=p.getContext(&quot;2d&quot;);let g=y.createImageData(l,c);const w=new b(o);&quot;objectBoundingBox&quot;===o.getAttribute(&quot;gradientUnits&quot;)&amp;&amp;w.scale(new x(l,c));const m=o.getAttribute(&quot;gradientTransform&quot;);null!=m&amp;&amp;w.transform(h(m)),&quot;userSpaceOnUse&quot;===o.getAttribute(&quot;gradientUnits&quot;)&amp;&amp;w.transform(new x(-u,-f)),w.paintMesh(g.data,p.width),y.putImageData(g,0,0);const M=document.createElementNS(t,&quot;image&quot;);d(M,{width:l,height:c,x:0,y:0});let S=p.toDataURL();M.setAttributeNS(e,&quot;xlink:href&quot;,S);const k=&quot;pattern_clip&quot;+n,A=document.createElementNS(t,&quot;pattern&quot;);d(A,{id:k,patternUnits:&quot;userSpaceOnUse&quot;,width:l,height:c,x:u,y:f}),A.appendChild(M),o.parentNode.appendChild(A),r.style.stroke=&quot;url(#&quot;+k+&quot;)&quot;,g=null,p=null,S=null}}})}();
</script>
</svg>
